<svg width="current" height="current" viewBox="0 0 218 55" fill="none" xmlns="http://www.w3.org/2000/svg">
<path d="M12.864 4.416C17.5147 4.416 21.2907 5.952 24.192 9.024C27.136 12.096 28.608 17.664 28.608 25.728C28.608 33.9627 27.1147 39.744 24.128 43.072C21.1413 46.3573 17.472 48 13.12 48H6.4V4.416H12.864ZM7.808 5.76V46.656H13.184C17.1947 46.656 20.5013 45.12 23.104 42.048C25.7493 38.9333 27.072 33.4933 27.072 25.728C27.072 17.9627 25.7493 12.6933 23.104 9.92C20.4587 7.14666 17.0453 5.76 12.864 5.76H7.808ZM53.937 36.992C53.937 40.4053 53.0197 43.2 51.185 45.376C49.3503 47.552 46.6197 48.64 42.993 48.64C39.281 48.64 36.5077 47.552 34.673 45.376C32.881 43.2 31.985 40.4053 31.985 36.992V4.416H33.393V36.864C33.393 39.9787 34.1823 42.496 35.761 44.416C37.3397 46.2933 39.7503 47.232 42.993 47.232C46.2357 47.232 48.625 46.272 50.161 44.352C51.7397 42.432 52.529 39.936 52.529 36.864V4.416H53.937V36.992ZM66.652 3.776C68.7427 3.776 70.5133 4.16 71.964 4.928C73.4147 5.65333 74.8227 6.74133 76.188 8.192L75.292 9.088C73.9693 7.72266 72.6467 6.72 71.324 6.08C70.0013 5.44 68.444 5.12 66.652 5.12C64.1773 5.12 62.1507 5.952 60.572 7.616C59.036 9.28 58.268 11.3493 58.268 13.824C58.268 16.2987 58.908 18.2827 60.188 19.776C61.5107 21.2267 63.836 22.592 67.164 23.872C70.7907 25.28 73.3933 26.9013 74.972 28.736C76.5507 30.5707 77.34 33.1093 77.34 36.352C77.34 38.656 76.8707 40.7467 75.932 42.624C74.9933 44.5013 73.6707 45.9733 71.964 47.04C70.3 48.1067 68.4013 48.64 66.268 48.64C64.0067 48.64 62.0227 48.192 60.316 47.296C58.6093 46.4 56.988 45.0987 55.452 43.392L56.412 42.56C57.82 44.096 59.2707 45.2693 60.764 46.08C62.3 46.848 64.1133 47.232 66.204 47.232C69.1053 47.232 71.4307 46.2293 73.18 44.224C74.972 42.176 75.868 39.5733 75.868 36.416C75.868 33.4293 75.1853 31.1467 73.82 29.568C72.4547 27.9467 70.0653 26.4533 66.652 25.088C63.0253 23.6373 60.4653 22.08 58.972 20.416C57.5213 18.752 56.796 16.5547 56.796 13.824C56.796 12.032 57.2013 10.368 58.012 8.832C58.8653 7.296 60.0387 6.08 61.532 5.184C63.0253 4.24533 64.732 3.776 66.652 3.776ZM82.2955 4.416V48H80.8875V4.416H82.2955ZM100.536 4.416L84.2155 24.512L101.368 48H99.7035L82.4875 24.512L98.8715 4.416H100.536ZM122.655 48V25.664H103.583V48H102.175V4.416H103.583V24.32H122.655V4.416H124.127V48H122.655ZM187.924 36.992C187.924 40.4053 187.007 43.2 185.172 45.376C183.338 47.552 180.607 48.64 176.98 48.64C173.268 48.64 170.495 47.552 168.66 45.376C166.868 43.2 165.972 40.4053 165.972 36.992V4.416H167.38V36.864C167.38 39.9787 168.17 42.496 169.748 44.416C171.327 46.2933 173.738 47.232 176.98 47.232C180.223 47.232 182.612 46.272 184.148 44.352C185.727 42.432 186.516 39.936 186.516 36.864V4.416H187.924V36.992ZM213.617 48L203.697 27.136C202.673 27.2213 201.905 27.264 201.393 27.264H195.121V48H193.713V4.416H200.561C205.126 4.416 208.433 5.39733 210.481 7.36C212.529 9.28 213.553 12.0747 213.553 15.744C213.553 18.7733 212.806 21.248 211.313 23.168C209.862 25.0453 207.793 26.2827 205.105 26.88L215.217 48H213.617ZM201.137 25.92C208.39 25.92 212.017 22.528 212.017 15.744C212.017 12.416 211.142 9.92 209.393 8.256C207.643 6.592 204.657 5.76 200.433 5.76H195.121V25.92H201.137Z" fill="black"/>
<path d="M137.716 8.21053L137.171 8.49532C134.785 9.74192 132.668 11.4463 130.94 13.511C129.213 15.5758 127.909 17.9605 127.103 20.5291C125.476 25.7166 125.976 31.338 128.493 36.1565C131.011 40.9751 135.34 44.5962 140.527 46.2232C143.096 47.0288 145.798 47.3206 148.479 47.0819C151.161 46.8433 153.769 46.0788 156.155 44.8322C161.606 41.9844 163.746 38.5538 165.592 34.1198C157.023 42.0661 144.141 39.5451 139.395 30.4609C134.649 21.3766 139.937 9.36289 151.354 6.86713C149.107 6.16473 146.742 5.9217 144.399 6.15249C142.056 6.38328 139.783 7.08319 137.716 8.21053ZM149.879 11.5695L150.476 19.3524L144.038 23.4098L151.68 25.199L153.367 32.4123L157.283 25.7409L164.996 26.3369L159.856 20.9273L162.934 13.5373L155.927 16.5046L149.879 11.5695Z" fill="#FFC700"/>
</svg>
